<?xml version="1.0" encoding="UTF-8" standalone="no"?>
<!DOCTYPE svg PUBLIC "-//W3C//DTD SVG 1.1//EN" "http://www.w3.org/Graphics/SVG/1.1/DTD/svg11.dtd">
<svg xmlns="http://www.w3.org/2000/svg" version="1.1" viewBox="0.00 0.00 1482.00 1414.00">
<path fill="#4ecd05" d="
  M 205.63 130.62
  C 203.31 130.47 201.39 129.71 199.09 129.75
  Q 194.60 129.83 190.15 129.19
  C 183.20 128.19 177.37 127.98 171.00 127.11
  C 153.43 124.70 136.56 123.65 118.31 120.65
  Q 116.30 120.32 101.12 118.34
  Q 93.50 117.34 84.01 115.45
  C 74.57 113.56 64.52 113.00 53.62 112.87
  Q 27.33 112.55 1.03 112.30
  Q 0.34 112.29 0.38 111.61
  L 0.67 105.48
  Q 0.71 104.75 1.42 104.87
  Q 3.82 105.25 6.02 105.38
  Q 46.67 107.87 87.38 108.59
  C 103.70 108.88 120.24 107.99 136.25 108.55
  Q 161.37 109.43 186.50 109.96
  Q 196.30 110.17 206.46 111.04
  Q 230.97 113.15 255.52 114.62
  C 271.86 115.60 288.31 117.35 304.72 118.51
  C 312.49 119.06 320.69 120.64 328.75 121.48
  C 350.58 123.78 372.47 125.81 394.24 128.68
  Q 399.91 129.42 409.00 130.46
  Q 440.35 134.04 480.77 141.41
  C 490.29 143.15 501.90 146.19 512.59 148.09
  Q 518.18 149.09 525.80 150.98
  Q 531.27 152.34 539.00 153.95
  Q 550.85 156.42 593.90 167.61
  C 600.39 169.30 607.18 172.14 613.98 174.13
  C 630.16 178.87 640.37 182.52 652.94 186.91
  C 664.03 190.78 675.53 195.98 684.27 199.02
  Q 693.73 202.32 706.95 209.30
  C 712.53 212.24 711.30 217.17 710.23 222.29
  Q 707.02 237.53 706.89 253.10
  C 706.84 258.42 708.20 264.02 708.77 269.58
  C 709.06 272.39 710.40 275.65 710.67 278.84
  Q 710.71 279.38 710.43 279.84
  Q 703.62 290.70 708.49 302.34
  Q 709.36 304.43 711.11 305.68
  C 712.87 306.93 716.90 308.27 717.54 310.47
  Q 720.14 319.40 723.53 328.06
  Q 725.44 332.94 725.53 336.15
  C 725.63 339.81 724.09 343.58 724.87 347.01
  Q 726.56 354.40 731.32 360.15
  Q 733.83 363.19 734.95 364.95
  C 736.43 367.27 737.70 369.46 739.75 371.37
  C 744.15 375.46 748.30 379.71 752.99 383.26
  Q 762.09 390.15 771.61 396.44
  Q 777.62 400.41 784.25 403.23
  Q 802.67 411.07 816.51 414.32
  Q 826.03 416.55 842.76 416.49
  Q 861.50 416.42 880.25 416.50
  C 893.99 416.55 904.99 418.50 918.48 421.59
  C 924.71 423.01 932.66 425.58 940.11 427.18
  C 948.91 429.07 957.67 432.22 966.47 434.54
  C 974.83 436.75 982.82 440.12 990.92 442.41
  Q 995.65 443.76 1000.36 445.13
  C 1002.52 445.75 1004.36 447.25 1006.07 447.93
  Q 1020.79 453.78 1035.67 459.27
  C 1039.54 460.70 1043.12 456.93 1045.64 454.82
  A 1.36 1.36 0.0 0 1 1047.63 455.08
  Q 1050.35 458.94 1054.19 462.06
  Q 1062.64 468.93 1072.08 474.29
  Q 1072.15 474.33 1079.17 478.57
  Q 1084.33 481.68 1090.15 483.46
  C 1092.82 484.28 1095.48 486.36 1097.85 483.37
  C 1099.62 481.13 1100.15 475.65 1101.56 472.32
  Q 1101.78 471.79 1102.16 472.22
  Q 1115.37 487.46 1131.74 499.08
  Q 1134.87 501.30 1140.52 505.69
  Q 1145.07 509.24 1149.64 511.84
  Q 1153.59 514.09 1157.33 511.44
  Q 1157.77 511.13 1157.47 510.69
  Q 1155.80 508.22 1156.10 506.50
  Q 1157.18 500.36 1157.51 494.52
  A 1.99 1.94 -18.5 0 1 1158.23 493.12
  Q 1158.94 492.53 1159.64 492.81
  Q 1160.07 492.99 1160.44 493.65
  Q 1163.43 498.95 1166.95 502.05
  C 1175.05 509.19 1179.51 515.04 1189.03 523.00
  Q 1192.26 525.71 1194.77 528.21
  C 1202.29 535.73 1207.69 543.63 1219.00 543.07
  C 1226.41 542.70 1240.25 542.02 1245.16 546.73
  Q 1246.44 547.95 1247.66 549.93
  C 1252.33 557.49 1257.77 563.29 1261.05 569.44
  C 1263.06 573.21 1267.39 576.98 1269.86 581.63
  Q 1272.30 586.21 1275.65 590.17
  C 1278.09 593.05 1279.18 595.98 1281.00 599.13
  C 1282.94 602.49 1287.20 606.17 1287.42 610.87
  C 1287.61 615.02 1285.03 621.10 1288.21 625.99
  Q 1289.37 627.77 1293.28 631.00
  C 1299.90 636.47 1306.56 642.46 1313.71 646.75
  Q 1325.76 653.98 1338.71 659.60
  Q 1344.02 661.91 1352.00 663.72
  C 1356.57 664.75 1369.18 667.85 1361.57 673.52
  C 1356.42 677.37 1350.78 681.00 1346.01 684.83
  Q 1339.02 690.44 1332.11 696.14
  Q 1328.53 699.09 1322.08 699.77
  Q 1321.60 699.82 1321.25 699.49
  C 1316.57 695.05 1312.00 691.57 1307.05 686.63
  C 1304.36 683.96 1301.24 682.00 1298.75 679.34
  Q 1294.63 674.93 1291.28 672.23
  Q 1279.70 662.92 1268.27 653.43
  C 1266.25 651.76 1262.31 650.41 1259.76 648.58
  Q 1248.10 640.18 1234.72 634.89
  C 1231.99 633.82 1230.17 631.62 1227.44 630.62
  Q 1205.02 622.36 1187.84 605.70
  Q 1186.12 604.03 1184.70 598.51
  Q 1183.51 593.89 1183.42 577.00
  Q 1183.41 575.11 1182.34 572.57
  Q 1181.55 570.66 1179.60 569.40
  Q 1170.96 563.81 1161.51 559.79
  C 1158.20 558.37 1155.12 555.88 1152.17 554.58
  Q 1124.16 542.16 1096.26 529.50
  Q 1089.59 526.47 1079.29 522.42
  Q 1079.15 522.37 1067.27 517.36
  C 1061.56 514.95 1055.47 513.30 1050.04 510.85
  C 1040.40 506.51 1030.54 502.75 1020.72 498.84
  Q 1014.15 496.22 1005.76 493.72
  C 1004.42 493.32 1002.56 492.21 1000.96 491.63
  Q 973.94 481.89 952.99 474.98
  Q 945.00 472.34 935.82 470.51
  C 931.05 469.56 925.90 467.72 921.74 467.05
  Q 889.43 461.85 856.74 462.37
  Q 846.35 462.54 836.82 463.90
  Q 813.93 467.15 793.24 474.06
  C 788.28 475.72 782.06 479.71 778.77 481.41
  C 773.51 484.14 768.09 486.58 763.17 489.78
  C 757.07 493.75 750.45 497.87 745.00 501.87
  Q 728.58 513.93 714.64 528.79
  C 710.00 533.74 706.09 539.58 701.94 545.21
  Q 699.50 548.51 696.77 553.33
  C 694.11 558.01 690.73 562.11 688.78 567.21
  Q 686.83 572.32 683.89 576.92
  Q 681.82 580.18 680.87 582.92
  C 676.94 594.30 672.34 606.34 670.44 618.22
  Q 669.50 624.07 668.56 629.91
  Q 667.34 637.50 666.73 645.66
  C 666.20 652.72 665.31 660.13 665.50 666.80
  C 665.82 677.87 668.19 689.33 669.44 699.16
  C 670.77 709.64 671.86 717.66 676.65 728.86
  C 679.01 734.37 679.23 740.36 682.44 745.36
  C 684.19 748.10 686.27 750.06 687.19 753.33
  Q 688.74 758.82 691.91 763.46
  C 695.26 768.37 696.92 771.15 699.21 775.32
  C 701.79 780.03 705.19 783.38 708.02 787.72
  Q 710.18 791.02 713.86 794.89
  Q 728.26 810.05 739.60 819.14
  C 749.40 827.00 761.35 832.55 772.80 838.58
  Q 777.67 841.15 783.12 842.99
  C 789.69 845.20 796.16 847.83 802.78 849.44
  Q 813.76 852.12 824.76 854.72
  Q 835.63 857.28 853.89 857.80
  C 869.09 858.22 890.21 859.73 908.51 860.14
  Q 957.82 861.25 994.75 864.49
  Q 1045.79 868.97 1105.54 879.55
  C 1122.13 882.49 1138.89 886.94 1155.55 890.66
  Q 1161.35 891.96 1169.23 894.56
  C 1175.64 896.68 1182.56 898.38 1188.52 900.34
  Q 1198.99 903.79 1209.51 907.06
  Q 1233.45 914.51 1256.43 924.46
  Q 1256.54 924.51 1265.67 928.25
  C 1275.87 932.44 1284.56 937.47 1296.74 943.18
  Q 1303.83 946.50 1309.53 949.75
  C 1315.11 952.93 1320.51 956.19 1326.21 959.29
  Q 1338.47 965.93 1342.33 968.92
  Q 1347.93 973.26 1353.97 976.92
  Q 1358.72 979.80 1362.58 982.84
  C 1366.74 986.12 1371.37 989.26 1375.19 992.37
  Q 1380.43 996.63 1385.59 1000.97
  Q 1385.65 1001.03 1390.10 1004.20
  C 1392.52 1005.92 1394.07 1008.42 1396.13 1010.13
  C 1400.67 1013.91 1404.47 1017.98 1409.10 1022.11
  C 1417.67 1029.76 1425.78 1039.95 1432.19 1048.44
  C 1434.23 1051.14 1436.74 1053.57 1438.54 1055.70
  Q 1443.76 1061.89 1449.85 1071.47
  Q 1450.63 1072.71 1456.26 1080.99
  C 1459.16 1085.27 1461.43 1089.86 1464.24 1094.09
  Q 1468.27 1100.16 1471.38 1106.75
  C 1473.29 1110.80 1477.18 1115.90 1478.16 1119.55
  C 1481.11 1130.53 1483.03 1140.03 1480.95 1149.26
  Q 1480.24 1152.44 1479.92 1149.19
  C 1479.46 1144.37 1479.17 1138.18 1476.38 1134.05
  Q 1472.18 1127.87 1468.87 1121.20
  Q 1467.64 1118.72 1465.53 1116.23
  Q 1462.24 1112.35 1459.58 1107.43
  C 1456.84 1102.36 1452.74 1098.10 1449.80 1093.14
  C 1446.56 1087.67 1442.88 1085.53 1439.91 1080.34
  C 1437.73 1076.52 1433.29 1073.93 1430.38 1069.81
  Q 1428.31 1066.89 1426.62 1065.10
  C 1417.52 1055.43 1409.32 1045.51 1398.52 1036.80
  C 1393.77 1032.97 1388.55 1027.66 1383.13 1023.88
  Q 1374.50 1017.86 1368.64 1013.12
  Q 1360.81 1006.77 1343.03 995.76
  Q 1327.79 986.32 1316.08 980.40
  Q 1310.34 977.50 1300.49 972.34
  Q 1290.16 966.92 1279.15 963.01
  Q 1276.78 962.17 1270.52 959.41
  C 1266.68 957.72 1262.29 956.74 1258.70 955.25
  Q 1245.91 949.93 1232.55 946.33
  Q 1225.74 944.49 1220.61 942.70
  C 1215.27 940.83 1210.39 938.96 1204.64 938.08
  Q 1192.61 936.24 1180.77 933.49
  Q 1179.19 933.12 1176.69 933.52
  Q 1176.22 933.59 1176.14 934.06
  L 1175.85 935.66
  Q 1175.73 936.32 1175.09 936.13
  L 1174.05 935.84
  A 0.42 0.41 -11.6 0 0 1173.61 936.50
  C 1176.93 940.50 1180.93 942.78 1184.71 946.37
  Q 1187.03 948.58 1190.47 950.78
  Q 1193.89 952.97 1199.57 957.83
  Q 1202.47 960.32 1208.53 965.02
  C 1214.71 969.81 1221.32 976.82 1225.67 980.81
  C 1233.02 987.56 1240.10 994.62 1247.42 1001.40
  C 1250.35 1004.12 1253.05 1007.74 1255.50 1010.24
  Q 1272.50 1027.61 1288.63 1045.77
  Q 1288.67 1045.83 1293.36 1050.78
  C 1296.61 1054.22 1298.99 1058.09 1302.16 1061.50
  Q 1304.93 1064.49 1307.31 1067.80
  C 1310.89 1072.79 1314.98 1077.09 1318.26 1082.25
  Q 1320.04 1085.06 1322.60 1087.94
  C 1326.02 1091.78 1328.69 1096.50 1331.41 1100.37
  C 1334.85 1105.26 1338.05 1111.34 1342.13 1116.72
  C 1345.52 1121.20 1347.46 1126.60 1350.95 1131.27
  C 1355.09 1136.81 1357.66 1142.57 1361.24 1148.26
  Q 1363.51 1151.85 1365.93 1156.85
  C 1368.02 1161.17 1370.76 1165.06 1372.46 1169.51
  Q 1376.11 1179.02 1381.19 1187.83
  Q 1382.66 1190.37 1383.55 1193.54
  Q 1385.39 1200.07 1388.66 1205.99
  C 1391.80 1211.67 1393.09 1217.77 1394.98 1223.84
  Q 1395.94 1226.91 1399.00 1235.00
  C 1402.44 1244.10 1404.05 1253.82 1406.98 1262.62
  Q 1411.52 1276.25 1412.27 1281.74
  C 1413.85 1293.22 1415.17 1302.64 1417.78 1315.76
  Q 1421.56 1334.70 1420.02 1354.32
  A 1.36 1.36 0.0 0 1 1417.50 1354.91
  Q 1416.35 1352.97 1415.82 1350.24
  Q 1413.20 1336.73 1411.17 1323.12
  Q 1410.57 1319.12 1409.04 1315.08
  Q 1403.80 1301.25 1400.63 1286.81
  Q 1399.77 1282.89 1398.08 1278.96
  C 1395.02 1271.87 1393.78 1265.75 1392.04 1259.12
  Q 1391.49 1257.04 1390.00 1254.04
  Q 1386.22 1246.41 1383.56 1238.31
  C 1380.55 1229.11 1376.07 1220.75 1372.87 1211.63
  Q 1371.52 1207.76 1369.23 1203.48
  C 1366.05 1197.50 1363.99 1190.94 1360.88 1185.26
  C 1358.79 1181.44 1357.25 1178.45 1355.10 1173.65
  Q 1352.70 1168.28 1348.04 1160.97
  Q 1347.21 1159.67 1345.57 1155.53
  C 1343.49 1150.27 1340.02 1145.46 1337.27 1140.51
  C 1333.64 1133.96 1328.65 1127.36 1324.94 1120.32
  C 1324.23 1118.98 1322.22 1117.32 1321.21 1115.74
  Q 1315.14 1106.23 1307.91 1097.57
  C 1306.65 1096.05 1305.59 1093.62 1304.19 1091.87
  Q 1300.72 1087.52 1297.52 1082.96
  Q 1293.59 1077.39 1290.86 1074.06
  C 1275.25 1055.08 1263.56 1042.61 1248.41 1028.09
  C 1243.13 1023.03 1237.16 1018.87 1231.98 1013.75
  C 1229.80 1011.59 1227.24 1009.93 1225.08 1007.97
  Q 1221.15 1004.39 1212.72 997.77
  Q 1189.72 979.73 1169.80 968.22
  Q 1162.43 963.96 1157.50 961.01
  C 1145.75 953.98 1134.35 948.20 1122.14 942.66
  Q 1116.05 939.89 1104.48 935.77
  C 1096.47 932.92 1088.72 929.48 1080.66 927.20
  C 1070.28 924.25 1060.00 920.79 1049.63 918.60
  C 1035.89 915.69 1022.18 912.43 1008.32 910.82
  Q 977.02 907.18 962.62 906.83
  Q 903.94 905.40 845.25 904.29
  Q 834.15 904.08 821.87 902.39
  C 809.69 900.70 795.64 896.47 782.51 893.61
  Q 779.27 892.90 775.21 891.16
  C 771.13 889.41 766.44 888.25 762.72 886.71
  C 751.98 882.28 740.64 878.28 730.71 872.17
  Q 719.48 865.26 708.29 858.29
  Q 703.39 855.24 698.85 851.28
  C 694.87 847.81 690.82 844.48 687.15 840.79
  Q 676.17 829.79 665.62 818.39
  C 662.08 814.56 660.11 809.74 656.45 805.81
  C 651.90 800.92 650.41 795.26 645.86 788.89
  C 642.41 784.04 641.05 777.65 638.03 773.00
  C 635.87 769.68 634.55 767.73 633.59 763.76
  Q 631.37 754.60 627.31 746.11
  C 622.12 735.28 624.26 722.73 620.27 712.02
  Q 618.02 705.97 617.52 702.00
  C 614.42 677.45 615.71 653.75 620.48 629.64
  Q 621.81 622.89 622.71 615.26
  C 623.69 606.85 624.69 598.95 627.87 590.82
  Q 631.26 582.18 633.35 573.13
  Q 634.14 569.70 635.70 566.60
  C 639.77 558.53 642.39 549.68 646.32 542.08
  Q 655.86 523.67 659.83 517.61
  Q 664.47 510.53 678.11 494.18
  Q 680.19 491.69 684.13 488.07
  C 686.98 485.45 689.73 482.18 692.17 479.86
  Q 706.88 465.88 722.36 457.12
  Q 731.49 451.95 736.76 448.25
  C 739.63 446.24 741.93 444.93 744.84 443.73
  A 2.35 2.35 0.0 0 0 746.29 441.70
  Q 746.74 434.56 743.99 427.92
  C 742.43 424.16 738.30 418.51 736.85 413.39
  C 735.55 408.85 734.99 405.68 732.46 402.02
  C 729.59 397.88 728.53 393.02 726.95 388.32
  Q 725.79 384.86 723.15 379.75
  Q 719.51 372.71 717.36 365.05
  Q 716.56 362.18 715.01 359.65
  Q 710.09 351.60 707.36 342.90
  A 2.51 2.50 85.6 0 0 705.36 341.18
  C 702.61 340.76 699.75 340.29 696.86 340.43
  Q 642.24 343.21 588.10 350.80
  C 578.29 352.18 563.24 354.97 550.50 355.89
  Q 547.25 356.13 534.77 358.82
  Q 508.52 364.50 482.15 369.52
  C 476.04 370.68 470.22 372.70 464.14 373.71
  Q 455.47 375.17 447.15 377.95
  Q 439.66 380.46 435.17 381.53
  Q 416.80 385.89 398.69 391.20
  Q 396.44 391.86 385.43 394.55
  C 379.37 396.03 373.04 398.56 367.78 400.03
  Q 354.90 403.63 342.01 407.19
  C 327.13 411.31 312.72 416.68 298.15 421.71
  Q 298.12 421.73 290.19 424.80
  C 285.94 426.45 281.34 427.29 277.37 428.89
  C 268.57 432.43 262.04 433.87 254.42 436.62
  Q 249.07 438.55 243.68 440.18
  Q 232.09 443.68 221.41 449.38
  C 215.34 452.61 206.61 453.51 202.26 456.02
  C 195.98 459.64 188.89 460.97 183.04 463.49
  C 178.34 465.51 174.25 467.70 169.10 468.98
  C 165.94 469.76 163.29 471.77 160.57 472.74
  Q 152.90 475.47 150.30 476.80
  C 139.01 482.58 129.12 486.23 119.17 491.31
  C 113.65 494.14 107.59 496.03 101.96 498.98
  C 96.64 501.77 91.50 503.11 85.97 506.33
  Q 83.33 507.87 80.00 509.25
  Q 76.08 510.87 63.49 516.90
  Q 63.43 516.93 59.14 519.22
  C 56.30 520.74 53.21 521.40 50.53 522.96
  Q 44.34 526.57 37.77 529.39
  Q 34.74 530.68 31.61 532.82
  C 26.87 536.08 21.65 538.20 16.58 540.84
  C 14.44 541.96 12.30 542.06 10.30 543.40
  Q 6.10 546.20 1.77 548.75
  Q 1.56 548.88 1.51 548.64
  Q 0.90 545.72 2.71 544.71
  Q 7.12 542.23 11.60 539.93
  C 14.72 538.32 18.26 535.67 22.03 534.12
  C 23.34 533.58 24.40 532.36 25.46 531.91
  Q 34.10 528.28 41.92 523.16
  Q 46.72 520.02 50.93 517.91
  C 56.66 515.04 61.89 511.72 67.90 509.06
  C 70.74 507.80 73.24 505.82 75.79 504.62
  C 81.53 501.90 87.28 499.67 92.42 495.99
  Q 93.65 495.12 95.08 494.58
  Q 101.99 491.98 108.44 488.41
  C 114.02 485.33 120.59 482.83 126.22 479.07
  C 130.49 476.22 134.41 475.47 138.81 473.47
  Q 150.59 468.12 162.62 463.39
  C 164.57 462.62 166.11 461.08 167.75 460.32
  C 174.36 457.25 181.44 454.77 187.59 451.59
  C 197.89 446.25 206.37 441.48 218.70 436.69
  Q 236.25 429.88 253.52 422.36
  Q 258.73 420.09 269.94 416.25
  Q 277.54 413.66 286.31 410.02
  Q 295.98 406.00 305.86 402.52
  Q 306.16 402.42 312.51 400.77
  C 316.28 399.78 319.34 397.30 322.93 396.40
  C 327.49 395.25 331.88 394.48 336.22 392.60
  Q 345.70 388.52 348.77 387.50
  Q 402.09 369.94 416.27 365.54
  Q 434.15 360.00 460.36 353.93
  C 466.11 352.60 471.46 350.44 477.21 349.20
  C 493.97 345.59 510.32 340.82 526.99 336.93
  C 531.76 335.81 536.51 334.30 541.22 333.44
  Q 555.40 330.84 569.42 327.46
  Q 577.51 325.51 584.33 324.45
  C 594.57 322.86 604.42 321.43 615.00 319.31
  C 622.05 317.90 628.48 316.60 635.88 315.86
  Q 661.32 313.31 686.47 308.70
  C 689.62 308.13 692.31 306.88 695.30 305.67
  A 1.38 1.38 0.0 0 0 695.59 303.28
  L 694.19 302.26
  Q 693.79 301.96 693.59 301.50
  Q 689.97 292.97 687.81 283.98
  A 1.12 1.10 89.9 0 0 687.00 283.16
  C 681.78 281.83 677.19 280.84 671.60 280.69
  Q 647.87 280.07 635.75 278.70
  Q 624.14 277.38 620.25 277.33
  Q 521.94 276.08 494.00 276.58
  Q 449.88 277.38 405.75 278.10
  Q 386.99 278.41 368.26 279.37
  C 349.78 280.31 331.24 280.73 312.74 281.26
  Q 289.98 281.92 267.26 283.55
  C 247.45 284.97 227.60 285.77 207.77 287.14
  Q 183.52 288.82 159.22 289.31
  C 142.76 289.64 126.74 292.04 110.54 293.85
  C 93.52 295.75 76.71 294.17 59.61 296.61
  Q 55.02 297.26 48.56 299.11
  C 36.05 302.68 23.19 303.89 8.34 305.09
  C 6.27 305.26 3.90 306.02 1.60 306.32
  A 0.70 0.70 0.0 0 1 0.83 305.79
  Q 0.19 303.10 1.02 300.47
  Q 1.20 299.89 1.80 299.77
  C 11.28 297.83 20.42 295.52 30.21 295.05
  Q 42.48 294.45 54.71 293.50
  C 60.76 293.03 66.04 290.66 71.99 289.59
  C 80.47 288.08 88.96 285.93 97.54 285.30
  Q 105.08 284.75 107.63 284.41
  Q 118.75 282.94 125.70 282.08
  C 138.99 280.43 150.85 278.39 163.42 276.49
  C 176.17 274.56 191.20 273.41 205.07 271.30
  Q 214.14 269.92 223.03 269.24
  Q 233.19 268.46 243.32 267.29
  Q 256.17 265.80 263.21 265.21
  C 283.80 263.46 304.35 261.39 324.99 260.21
  Q 341.37 259.27 357.65 257.25
  Q 367.72 256.00 376.15 255.67
  Q 411.92 254.31 447.64 252.11
  Q 457.99 251.48 467.61 251.32
  Q 527.31 250.33 587.00 249.42
  C 614.65 249.00 642.34 249.40 670.00 249.55
  Q 674.28 249.57 678.04 247.72
  A 1.41 1.40 87.8 0 0 678.73 246.97
  Q 680.35 242.88 678.18 238.99
  A 1.65 1.63 -2.7 0 0 677.40 238.29
  C 671.33 235.70 665.16 233.60 659.35 230.58
  C 648.74 225.06 638.79 221.90 628.25 218.12
  C 617.45 214.24 606.86 210.11 595.64 207.08
  C 587.26 204.82 578.70 201.21 571.47 199.31
  Q 549.69 193.59 527.96 187.65
  Q 521.93 186.00 515.84 184.63
  C 507.27 182.70 499.38 180.15 491.12 177.91
  C 481.30 175.26 470.36 174.25 460.08 171.90
  C 453.90 170.48 445.26 166.98 437.75 166.05
  Q 422.59 164.17 411.22 161.07
  Q 403.44 158.94 389.19 157.12
  C 368.28 154.46 347.64 150.26 326.71 147.58
  C 321.21 146.88 316.11 145.39 310.69 144.67
  Q 277.52 140.31 244.40 135.60
  Q 236.89 134.53 224.53 133.39
  Q 214.47 132.46 204.47 131.03
  Q 203.89 130.94 204.43 130.71
  Q 204.97 130.47 205.63 130.62
  Z"
/>
</svg>
