<svg width="28" height="28" viewBox="0 0 28 28" fill="none" xmlns="http://www.w3.org/2000/svg">
<path fill-rule="evenodd" clip-rule="evenodd" d="M23.625 10.5C23.625 7.13324 20.8668 4.375 17.5 4.375H10.5C7.13323 4.375 4.375 7.13324 4.375 10.5V17.5C4.375 20.8668 7.13323 23.625 10.5 23.625H17.5C20.8668 23.625 23.625 20.8668 23.625 17.5V10.5ZM17.5 2.625C21.8332 2.625 25.375 6.16675 25.375 10.5V17.5C25.375 21.8332 21.8332 25.375 17.5 25.375H10.5C6.16677 25.375 2.625 21.8332 2.625 17.5V10.5C2.625 6.16675 6.16677 2.625 10.5 2.625H17.5ZM14.3501 10.0916C16.3154 10.0916 17.9084 11.6846 17.9084 13.6499C17.9084 15.6151 16.3154 17.2082 14.3501 17.2082C12.3849 17.2082 10.7918 15.6151 10.7918 13.6499C10.7918 11.6846 12.3849 10.0916 14.3501 10.0916ZM19.6585 13.6499C19.6585 10.7182 17.2818 8.34155 14.3501 8.34155C11.4184 8.34155 9.04178 10.7182 9.04178 13.6499C9.04178 14.7999 9.40753 15.8644 10.0289 16.7336L8.71477 18.0477C8.37305 18.3895 8.37305 18.9435 8.71477 19.2852C9.05648 19.6269 9.61053 19.6269 9.95225 19.2852L11.2664 17.9711C12.1356 18.5925 13.2001 18.9582 14.3501 18.9582C17.2818 18.9582 19.6585 16.5816 19.6585 13.6499Z" fill="#5BBA53"/>
</svg>
