<svg width="35" height="32" viewBox="0 0 35 32" fill="none" xmlns="http://www.w3.org/2000/svg">
<path d="M25.833 5.27857L34.2275 14.05C34.7197 14.5643 35 15.2714 35 16C35 16.7286 34.7197 17.4357 34.2275 17.95L25.833 26.7214C25.3955 27.1786 24.8076 27.4286 24.1924 27.4286C22.9141 27.4286 21.875 26.3429 21.875 25.0071V20.5714H13.125C11.915 20.5714 10.9375 19.55 10.9375 18.2857V13.7143C10.9375 12.45 11.915 11.4286 13.125 11.4286H21.875V6.99286C21.875 5.65714 22.9141 4.57143 24.1924 4.57143C24.8076 4.57143 25.3955 4.82857 25.833 5.27857ZM10.9375 4.57143H6.5625C5.35254 4.57143 4.375 5.59286 4.375 6.85714V25.1429C4.375 26.4071 5.35254 27.4286 6.5625 27.4286H10.9375C12.1475 27.4286 13.125 28.45 13.125 29.7143C13.125 30.9786 12.1475 32 10.9375 32H6.5625C2.93945 32 0 28.9286 0 25.1429V6.85714C0 3.07143 2.93945 0 6.5625 0H10.9375C12.1475 0 13.125 1.02143 13.125 2.28571C13.125 3.55 12.1475 4.57143 10.9375 4.57143Z" fill="#BC0C0C"/>
</svg>
